<svg xmlns="http://www.w3.org/2000/svg" xmlns:xlink="http://www.w3.org/1999/xlink" width="2048" height="2048" version="1.1" viewBox="0 0 2048 2048"><g id="document"><path fill="#fff" fill-opacity="1" d="M445.945,-674.314 L445.945,-102.478 C445.945,144.278 246.756,343.467 -7.92415e-05,343.467 C-246.756,343.467 -445.945,144.278 -445.945,-102.478 L-445.945,-102.478 L-148.648,-102.478 L-148.648,-102.478 C-148.648,-20.7213 -81.7565,46.1704 -3.96681e-05,46.1704 C81.7565,46.1704 148.648,-20.7213 148.648,-102.478 L148.648,-674.314 L445.945,-674.314 Z" transform="matrix(1,0,0,1,1024.0,1024.0)"/><path fill="#fff" fill-opacity="1" stroke="#fff" stroke-linecap="square" stroke-linejoin="miter" stroke-width="81.73" d="M-461.948,369.011 L-577.434,484.497 C-258.691,803.241 258.691,803.241 577.434,484.497 L461.948,369.01 C206.722,624.237 -206.722,624.237 -461.948,369.011 Z" transform="matrix(1,0,0,1,1024.0,1024.0)"/></g></svg>